<?xml version="1.0" encoding="UTF-8" standalone="no"?>
<!-- Created with Inkscape (http://www.inkscape.org/) -->

<svg
   xmlns:dc="http://purl.org/dc/elements/1.1/"
   xmlns:cc="http://creativecommons.org/ns#"
   xmlns:rdf="http://www.w3.org/1999/02/22-rdf-syntax-ns#"
   xmlns:svg="http://www.w3.org/2000/svg"
   xmlns="http://www.w3.org/2000/svg"
   xmlns:sodipodi="http://sodipodi.sourceforge.net/DTD/sodipodi-0.dtd"
   xmlns:inkscape="http://www.inkscape.org/namespaces/inkscape"
   width="800"
   height="600"
   viewBox="0 0 800.00001 600.00001"
   id="svg2"
   version="1.1"
   inkscape:version="0.91 r13725"
   sodipodi:docname="drawing.svg"
   inkscape:export-filename="/home/pawel/path3378.png"
   inkscape:export-xdpi="90"
   inkscape:export-ydpi="90">
  <sodipodi:namedview
     id="base"
     pagecolor="#ffffff"
     bordercolor="#666666"
     borderopacity="1.0"
     inkscape:pageopacity="1"
     inkscape:pageshadow="2"
     inkscape:zoom="0.98994949"
     inkscape:cx="327.58476"
     inkscape:cy="313.1672"
     inkscape:document-units="px"
     inkscape:current-layer="layer4"
     showgrid="false"
     inkscape:window-width="1920"
     inkscape:window-height="1056"
     inkscape:window-x="1920"
     inkscape:window-y="0"
     inkscape:window-maximized="1"
     units="px" />
  <defs
     id="defs4">
    <marker
       inkscape:isstock="true"
       style="overflow:visible"
       id="Arrow1Lend"
       refX="0"
       refY="0"
       orient="auto"
       inkscape:stockid="Arrow1Lend">
      <path
         inkscape:connector-curvature="0"
         transform="matrix(-0.8,0,0,-0.8,-10,0)"
         style="fill:#000000;fill-opacity:1;fill-rule:evenodd;stroke:#000000;stroke-width:1pt;stroke-opacity:1"
         d="M 0,0 5,-5 -12.5,0 5,5 0,0 Z"
         id="path4250" />
    </marker>
    <marker
       inkscape:isstock="true"
       style="overflow:visible"
       id="Arrow1Lend-3"
       refX="0"
       refY="0"
       orient="auto"
       inkscape:stockid="Arrow1Lend">
      <path
         transform="matrix(-0.8,0,0,-0.8,-10,0)"
         style="fill:#000000;fill-opacity:1;fill-rule:evenodd;stroke:#000000;stroke-width:1pt;stroke-opacity:1"
         d="M 0,0 5,-5 -12.5,0 5,5 0,0 Z"
         id="path4250-6"
         inkscape:connector-curvature="0" />
    </marker>
  </defs>
  <metadata
     id="metadata7">
    <rdf:RDF>
      <cc:Work
         rdf:about="">
        <dc:format>image/svg+xml</dc:format>
        <dc:type
           rdf:resource="http://purl.org/dc/dcmitype/StillImage" />
        <dc:title></dc:title>
      </cc:Work>
    </rdf:RDF>
  </metadata>
  <g
     inkscape:groupmode="layer"
     id="layer4"
     inkscape:label="background">
    <rect
       style="fill:#ffffff;fill-opacity:1"
       id="rect6679"
       width="1221.2744"
       height="767.71594"
       x="-180.81731"
       y="-94.984955" />
  </g>
  <g
     style="display:inline"
     inkscape:label="Layer 2"
     id="layer3"
     inkscape:groupmode="layer">
    <path
       inkscape:export-ydpi="90"
       inkscape:export-xdpi="90"
       inkscape:connector-curvature="0"
       id="path3378"
       style="fill:#999999;fill-opacity:0.75;fill-rule:evenodd;stroke:#000000;stroke-width:1pt;stroke-linecap:butt;stroke-linejoin:miter;stroke-opacity:1"
       d="m 122.85714,582.85714 0,1052.36216 m 100.00001,-1052.36216 0,1052.36216 m 100,-1052.36216 0,1052.36216 m 100,-1052.36216 0,1052.36216 m 100,-1052.36216 0,1052.36216 m 100,-1052.36216 0,1052.36216 m 100,-1052.36216 0,1052.36216 m 100,-1052.36216 0,1052.36216 M 122.85714,582.85714 l 744.0945,0 m -744.0945,100 744.0945,0 m -744.0945,100 744.0945,0 m -744.0945,100 744.0945,0 m -744.0945,100 744.0945,0 m -744.0945,99.99996 744.0945,0 m -744.0945,100 744.0945,0 m -744.0945,100 744.0945,0 m -744.0945,100 744.0945,0 m -744.0945,100 744.0945,0 m -744.0945,100 744.0945,0"
       transform="translate(0,-452.36216)" />
    <path
       style="fill:#ffe6d5;fill-opacity:1"
       d="m 123.55503,180.42605 0,-49.28572 49.28572,0 49.28571,0 0,49.28572 0,49.28571 -49.28571,0 -49.28572,0 0,-49.28571 z"
       id="path6594"
       inkscape:connector-curvature="0" />
    <path
       style="fill:#ffe6d5;fill-opacity:1"
       d="m 123.55503,180.42605 0,-49.28572 49.28572,0 49.28571,0 0,49.28572 0,49.28571 -49.28571,0 -49.28572,0 0,-49.28571 z"
       id="path6596"
       inkscape:connector-curvature="0" />
    <path
       style="fill:#ffccaa;fill-opacity:1"
       d="m 123.55503,280.42605 0,-49.28572 49.28572,0 49.28571,0 0,49.28572 0,49.28571 -49.28571,0 -49.28572,0 0,-49.28571 z"
       id="path6598"
       inkscape:connector-curvature="0" />
    <path
       style="fill:#ffccaa;fill-opacity:1"
       d="m 123.55503,280.42605 0,-49.28572 49.28572,0 49.28571,0 0,49.28572 0,49.28571 -49.28571,0 -49.28572,0 0,-49.28571 z"
       id="path6600"
       inkscape:connector-curvature="0" />
    <path
       style="fill:#ffccaa;fill-opacity:1"
       d="m 223.55503,180.42605 0,-49.28572 49.28572,0 49.28571,0 0,49.28572 0,49.28571 -49.28571,0 -49.28572,0 0,-49.28571 z"
       id="path6602"
       inkscape:connector-curvature="0" />
    <path
       style="fill:#ffb380;fill-opacity:1"
       d="m 323.55503,180.42605 0,-49.28572 49.28572,0 49.28571,0 0,49.28572 0,49.28571 -49.28571,0 -49.28572,0 0,-49.28571 z"
       id="path6604"
       inkscape:connector-curvature="0" />
    <path
       style="fill:#ffb380;fill-opacity:1"
       d="m 323.55503,180.42605 0,-49.28572 49.28572,0 49.28571,0 0,49.28572 0,49.28571 -49.28571,0 -49.28572,0 0,-49.28571 z"
       id="path6606"
       inkscape:connector-curvature="0" />
    <path
       style="fill:#ffb380;fill-opacity:1"
       d="m 323.55503,280.42605 0,-49.28572 49.28572,0 49.28571,0 0,49.28572 0,49.28571 -49.28571,0 -49.28572,0 0,-49.28571 z"
       id="path6608"
       inkscape:connector-curvature="0" />
    <path
       style="fill:#ffb380;fill-opacity:1"
       d="m 223.55503,280.42605 0,-49.28572 49.28572,0 49.28571,0 0,49.28572 0,49.28571 -49.28571,0 -49.28572,0 0,-49.28571 z"
       id="path6610"
       inkscape:connector-curvature="0" />
    <path
       style="fill:#ff7f2a;fill-opacity:1"
       d="m 223.55503,380.42605 0,-49.28572 49.28572,0 49.28571,0 0,49.28572 0,49.28571 -49.28571,0 -49.28572,0 0,-49.28571 z"
       id="path6612"
       inkscape:connector-curvature="0" />
    <path
       style="fill:#ff7f2a;fill-opacity:1"
       d="m 123.51032,380.46167 0,-49.30807 49.30807,0 49.30807,0 0,49.30807 0,49.30807 -49.30807,0 -49.30807,0 0,-49.30807 z"
       id="path6614"
       inkscape:connector-curvature="0" />
    <path
       style="fill:#ff7f2a;fill-opacity:1"
       d="m 123.51032,480.46677 0,-49.30807 49.30807,0 49.30807,0 0,49.30807 0,49.30807 -49.30807,0 -49.30807,0 0,-49.30807 z"
       id="path6616"
       inkscape:connector-curvature="0" />
    <path
       style="fill:#d45500;fill-opacity:1"
       d="m 123.51032,580.47187 0,-49.30807 49.30807,0 49.30807,0 0,49.30807 0,49.30807 -49.30807,0 -49.30807,0 0,-49.30807 z"
       id="path6618"
       inkscape:connector-curvature="0" />
    <path
       style="fill:#d45500;fill-opacity:1"
       d="m 223.51542,580.47187 0,-49.30807 49.30807,0 49.30807,0 0,49.30807 0,49.30807 -49.30807,0 -49.30807,0 0,-49.30807 z"
       id="path6620"
       inkscape:connector-curvature="0" />
    <path
       style="fill:#aa4400;fill-opacity:1"
       d="m 223.51542,480.46677 0,-49.30807 49.30807,0 49.30807,0 0,49.30807 0,49.30807 -49.30807,0 -49.30807,0 0,-49.30807 z"
       id="path6622"
       inkscape:connector-curvature="0" />
    <path
       style="fill:#aa4400;fill-opacity:1"
       d="m 323.52052,480.46677 0,-49.30807 49.30807,0 49.30807,0 0,49.30807 0,49.30807 -49.30807,0 -49.30807,0 0,-49.30807 z"
       id="path6624"
       inkscape:connector-curvature="0" />
    <path
       style="fill:#aa4400;fill-opacity:1"
       d="m 323.52052,380.46167 0,-49.30807 49.30807,0 49.30807,0 0,49.30807 0,49.30807 -49.30807,0 -49.30807,0 0,-49.30807 z"
       id="path6628"
       inkscape:connector-curvature="0" />
    <path
       style="fill:#aa4400;fill-opacity:1"
       d="m 323.52052,580.47187 0,-49.30807 49.30807,0 49.30807,0 0,49.30807 0,49.30807 -49.30807,0 -49.30807,0 0,-49.30807 z"
       id="path6630"
       inkscape:connector-curvature="0" />
    <path
       style="fill:#803300;fill-opacity:1"
       d="m 423.53179,280.47642 0,-49.30807 49.30807,0 49.30807,0 0,49.30807 0,49.30808 -49.30807,0 -49.30807,0 0,-49.30808 z"
       id="path6632"
       inkscape:connector-curvature="0" />
    <path
       style="fill:#803300;fill-opacity:1"
       d="m 423.53179,380.48153 0,-49.30808 49.30807,0 49.30807,0 0,49.30808 0,49.30807 -49.30807,0 -49.30807,0 0,-49.30807 z"
       id="path6636"
       inkscape:connector-curvature="0" />
    <path
       style="fill:#ff9955;fill-opacity:1"
       d="m 423.53179,180.47132 0,-49.30807 49.30807,0 49.30807,0 0,49.30807 0,49.30807 -49.30807,0 -49.30807,0 0,-49.30807 z"
       id="path6638"
       inkscape:connector-curvature="0" />
    <path
       style="fill:#ff9955;fill-opacity:1"
       d="m 523.53689,180.47132 0,-49.30807 49.30807,0 49.30807,0 0,49.30807 0,49.30807 -49.30807,0 -49.30807,0 0,-49.30807 z"
       id="path6640"
       inkscape:connector-curvature="0" />
    <path
       style="fill:#ff7f2a;fill-opacity:1"
       d="m 623.54199,180.47132 0,-49.30807 49.30807,0 49.30807,0 0,49.30807 0,49.30807 -49.30807,0 -49.30807,0 0,-49.30807 z"
       id="path6642"
       inkscape:connector-curvature="0" />
    <path
       style="fill:#ff7f2a;fill-opacity:1"
       d="m 723.54709,180.47132 0,-49.30807 49.30808,0 49.30807,0 0,49.30807 0,49.30807 -49.30807,0 -49.30808,0 0,-49.30807 z"
       id="path6644"
       inkscape:connector-curvature="0" />
    <path
       style="fill:#ff6600;fill-opacity:1"
       d="m 623.54199,280.47642 0,-49.30807 49.30807,0 49.30807,0 0,49.30807 0,49.30808 -49.30807,0 -49.30807,0 0,-49.30808 z"
       id="path6646"
       inkscape:connector-curvature="0" />
    <path
       style="fill:#d45500;fill-opacity:1"
       d="m 523.53689,280.47642 0,-49.30807 49.30807,0 49.30807,0 0,49.30807 0,49.30808 -49.30807,0 -49.30807,0 0,-49.30808 z"
       id="path6648"
       inkscape:connector-curvature="0" />
    <path
       style="fill:#aa4400;fill-opacity:1"
       d="m 523.53689,380.48153 0,-49.30808 49.30807,0 49.30807,0 0,49.30808 0,49.30807 -49.30807,0 -49.30807,0 0,-49.30807 z"
       id="path6650"
       inkscape:connector-curvature="0" />
    <path
       style="fill:#aa4400;fill-opacity:1"
       d="m 623.54199,380.48153 0,-49.30808 49.30807,0 49.30807,0 0,49.30808 0,49.30807 -49.30807,0 -49.30807,0 0,-49.30807 z"
       id="path6652"
       inkscape:connector-curvature="0" />
    <path
       style="fill:#aa4400;fill-opacity:1"
       d="m 723.54709,380.48153 0,-49.30808 49.30808,0 49.30807,0 0,49.30808 0,49.30807 -49.30807,0 -49.30808,0 0,-49.30807 z"
       id="path6654"
       inkscape:connector-curvature="0" />
    <path
       style="fill:#aa4400;fill-opacity:1"
       d="m 723.54709,280.47642 0,-49.30807 49.30808,0 49.30807,0 0,49.30807 0,49.30808 -49.30807,0 -49.30808,0 0,-49.30808 z"
       id="path6656"
       inkscape:connector-curvature="0" />
    <path
       style="fill:#c87137;fill-opacity:1"
       d="m 423.58194,480.47587 0,-49.30807 49.30807,0 49.30807,0 0,49.30807 0,49.30808 -49.30807,0 -49.30807,0 0,-49.30808 z"
       id="path6660"
       inkscape:connector-curvature="0" />
    <path
       style="fill:#c87137;fill-opacity:1"
       d="m 423.58194,580.48098 0,-49.30807 49.30807,0 49.30807,0 0,49.30807 0,49.30807 -49.30807,0 -49.30807,0 0,-49.30807 z"
       id="path6662"
       inkscape:connector-curvature="0" />
    <path
       style="fill:#c87137;fill-opacity:1"
       d="m 523.58704,580.48098 0,-49.30807 49.30807,0 49.30807,0 0,49.30807 0,49.30807 -49.30807,0 -49.30807,0 0,-49.30807 z"
       id="path6664"
       inkscape:connector-curvature="0" />
    <path
       style="fill:#a05a2c;fill-opacity:1"
       d="m 523.58704,480.47587 0,-49.30807 49.30807,0 49.30807,0 0,49.30807 0,49.30808 -49.30807,0 -49.30807,0 0,-49.30808 z"
       id="path6666"
       inkscape:connector-curvature="0" />
    <path
       style="fill:#a05a2c;fill-opacity:1"
       d="m 623.59214,480.47587 0,-49.30807 49.30808,0 49.30807,0 0,49.30807 0,49.30808 -49.30807,0 -49.30808,0 0,-49.30808 z"
       id="path6668"
       inkscape:connector-curvature="0" />
    <path
       style="fill:#a05a2c;fill-opacity:1"
       d="m 723.59725,480.47587 0,-49.30807 49.30807,0 49.30807,0 0,49.30807 0,49.30808 -49.30807,0 -49.30807,0 0,-49.30808 z"
       id="path6670"
       inkscape:connector-curvature="0" />
    <path
       style="fill:#784421;fill-opacity:1"
       d="m 623.59214,580.48098 0,-49.30807 49.30808,0 49.30807,0 0,49.30807 0,49.30807 -49.30807,0 -49.30808,0 0,-49.30807 z"
       id="path6672"
       inkscape:connector-curvature="0" />
    <path
       style="fill:#784421;fill-opacity:1"
       d="m 723.59725,580.48098 0,-49.30807 49.30807,0 49.30807,0 0,49.30807 0,49.30807 -49.30807,0 -49.30807,0 0,-49.30807 z"
       id="path6674"
       inkscape:connector-curvature="0" />
  </g>
  <g
     style="display:inline"
     transform="translate(0,-452.36216)"
     id="layer1"
     inkscape:groupmode="layer"
     inkscape:label="Layer 1">
    <text
       sodipodi:linespacing="125%"
       id="text3382"
       y="640.21936"
       x="125.00001"
       style="font-style:normal;font-weight:normal;font-size:40px;line-height:125%;font-family:sans-serif;letter-spacing:0px;word-spacing:0px;fill:#000000;fill-opacity:1;stroke:none;stroke-width:1px;stroke-linecap:butt;stroke-linejoin:miter;stroke-opacity:1"
       xml:space="preserve"><tspan
         y="640.21936"
         x="125.00001"
         id="tspan3384"
         sodipodi:role="line">(0,0)</tspan></text>
    <text
       sodipodi:linespacing="125%"
       id="text3386"
       y="638.79077"
       x="223.21428"
       style="font-style:normal;font-weight:normal;font-size:40px;line-height:125%;font-family:sans-serif;letter-spacing:0px;word-spacing:0px;fill:#000000;fill-opacity:1;stroke:none;stroke-width:1px;stroke-linecap:butt;stroke-linejoin:miter;stroke-opacity:1"
       xml:space="preserve"><tspan
         y="638.79077"
         x="223.21428"
         id="tspan3388"
         sodipodi:role="line">(1,0)</tspan></text>
    <text
       sodipodi:linespacing="125%"
       id="text3390"
       y="738.43365"
       x="124.19643"
       style="font-style:normal;font-weight:normal;font-size:40px;line-height:125%;font-family:sans-serif;letter-spacing:0px;word-spacing:0px;fill:#000000;fill-opacity:1;stroke:none;stroke-width:1px;stroke-linecap:butt;stroke-linejoin:miter;stroke-opacity:1"
       xml:space="preserve"><tspan
         y="738.43365"
         x="124.19643"
         id="tspan3392"
         sodipodi:role="line">(0,1)</tspan></text>
    <text
       sodipodi:linespacing="125%"
       id="text3394"
       y="738.79077"
       x="226.42856"
       style="font-style:normal;font-weight:normal;font-size:40px;line-height:125%;font-family:sans-serif;letter-spacing:0px;word-spacing:0px;fill:#000000;fill-opacity:1;stroke:none;stroke-width:1px;stroke-linecap:butt;stroke-linejoin:miter;stroke-opacity:1"
       xml:space="preserve"><tspan
         y="738.79077"
         x="226.42856"
         id="tspan3396"
         sodipodi:role="line">(1,1)</tspan></text>
    <text
       sodipodi:linespacing="125%"
       id="text3398"
       y="837.36218"
       x="126.42857"
       style="font-style:normal;font-weight:normal;font-size:40px;line-height:125%;font-family:sans-serif;letter-spacing:0px;word-spacing:0px;fill:#000000;fill-opacity:1;stroke:none;stroke-width:1px;stroke-linecap:butt;stroke-linejoin:miter;stroke-opacity:1"
       xml:space="preserve"><tspan
         y="837.36218"
         x="126.42857"
         id="tspan3400"
         sodipodi:role="line">(0,2)</tspan></text>
    <text
       sodipodi:linespacing="125%"
       id="text3402"
       y="836.64789"
       x="224.99998"
       style="font-style:normal;font-weight:normal;font-size:40px;line-height:125%;font-family:sans-serif;letter-spacing:0px;word-spacing:0px;fill:#000000;fill-opacity:1;stroke:none;stroke-width:1px;stroke-linecap:butt;stroke-linejoin:miter;stroke-opacity:1"
       xml:space="preserve"><tspan
         y="836.64789"
         x="224.99998"
         id="tspan3404"
         sodipodi:role="line">(1,2)</tspan></text>
    <text
       sodipodi:linespacing="125%"
       id="text3406"
       y="639.14795"
       x="323.57144"
       style="font-style:normal;font-weight:normal;font-size:40px;line-height:125%;font-family:sans-serif;letter-spacing:0px;word-spacing:0px;fill:#000000;fill-opacity:1;stroke:none;stroke-width:1px;stroke-linecap:butt;stroke-linejoin:miter;stroke-opacity:1"
       xml:space="preserve"><tspan
         y="639.14795"
         x="323.57144"
         id="tspan3408"
         sodipodi:role="line">(2,0)</tspan></text>
    <text
       sodipodi:linespacing="125%"
       id="text3410"
       y="541.67767"
       x="461.16907"
       style="font-style:normal;font-weight:normal;font-size:40px;line-height:125%;font-family:sans-serif;letter-spacing:0px;word-spacing:0px;fill:#000000;fill-opacity:1;stroke:none;stroke-width:1px;stroke-linecap:butt;stroke-linejoin:miter;stroke-opacity:1"
       xml:space="preserve"><tspan
         y="541.67767"
         x="461.16907"
         id="tspan3412"
         sodipodi:role="line">X</tspan></text>
    <text
       sodipodi:linespacing="125%"
       id="text3414"
       y="937.86768"
       x="55.807102"
       style="font-style:normal;font-weight:normal;font-size:40px;line-height:125%;font-family:sans-serif;letter-spacing:0px;word-spacing:0px;fill:#000000;fill-opacity:1;stroke:none;stroke-width:1px;stroke-linecap:butt;stroke-linejoin:miter;stroke-opacity:1"
       xml:space="preserve"><tspan
         y="937.86768"
         x="55.807102"
         id="tspan3416"
         sodipodi:role="line">Y</tspan></text>
    <text
       sodipodi:linespacing="125%"
       id="text3437"
       y="738.79077"
       x="322.85715"
       style="font-style:normal;font-weight:normal;font-size:40px;line-height:125%;font-family:sans-serif;letter-spacing:0px;word-spacing:0px;fill:#000000;fill-opacity:1;stroke:none;stroke-width:1px;stroke-linecap:butt;stroke-linejoin:miter;stroke-opacity:1"
       xml:space="preserve"><tspan
         y="738.79077"
         x="322.85715"
         id="tspan3439"
         sodipodi:role="line">(2,1)</tspan></text>
    <path
       inkscape:connector-curvature="0"
       id="path3441"
       d="m 64.411719,518.07804 370.725991,0"
       style="fill:none;fill-rule:evenodd;stroke:#000000;stroke-width:1px;stroke-linecap:butt;stroke-linejoin:miter;stroke-opacity:1;marker-end:url(#Arrow1Lend)" />
    <path
       inkscape:transform-center-y="-45.356726"
       inkscape:transform-center-x="-76.771593"
       inkscape:connector-curvature="0"
       id="path3441-7"
       d="m 63.75345,517.49979 0,370.72598"
       style="fill:none;fill-rule:evenodd;stroke:#000000;stroke-width:1px;stroke-linecap:butt;stroke-linejoin:miter;stroke-opacity:1;marker-end:url(#Arrow1Lend-3)" />
    <text
       sodipodi:linespacing="125%"
       id="text6054"
       y="573.79077"
       x="157.85713"
       style="font-style:normal;font-weight:normal;font-size:40px;line-height:125%;font-family:sans-serif;letter-spacing:0px;word-spacing:0px;fill:#000000;fill-opacity:1;stroke:none;stroke-width:1px;stroke-linecap:butt;stroke-linejoin:miter;stroke-opacity:1"
       xml:space="preserve"><tspan
         y="573.79077"
         x="157.85713"
         id="tspan6056"
         sodipodi:role="line">0</tspan></text>
    <text
       sodipodi:linespacing="125%"
       id="text6058"
       y="573.07648"
       x="260.71426"
       style="font-style:normal;font-weight:normal;font-size:40px;line-height:125%;font-family:sans-serif;letter-spacing:0px;word-spacing:0px;fill:#000000;fill-opacity:1;stroke:none;stroke-width:1px;stroke-linecap:butt;stroke-linejoin:miter;stroke-opacity:1"
       xml:space="preserve"><tspan
         y="573.07648"
         x="260.71426"
         id="tspan6060"
         sodipodi:role="line">1</tspan></text>
    <text
       sodipodi:linespacing="125%"
       id="text6062"
       y="573.79077"
       x="359.28574"
       style="font-style:normal;font-weight:normal;font-size:40px;line-height:125%;font-family:sans-serif;letter-spacing:0px;word-spacing:0px;fill:#000000;fill-opacity:1;stroke:none;stroke-width:1px;stroke-linecap:butt;stroke-linejoin:miter;stroke-opacity:1"
       xml:space="preserve"><tspan
         y="573.79077"
         x="359.28574"
         id="tspan6064"
         sodipodi:role="line">2</tspan></text>
    <text
       sodipodi:linespacing="125%"
       id="text6066"
       y="642.36218"
       x="92.14286"
       style="font-style:normal;font-weight:normal;font-size:40px;line-height:125%;font-family:sans-serif;letter-spacing:0px;word-spacing:0px;fill:#000000;fill-opacity:1;stroke:none;stroke-width:1px;stroke-linecap:butt;stroke-linejoin:miter;stroke-opacity:1"
       xml:space="preserve"><tspan
         y="642.36218"
         x="92.14286"
         id="tspan6068"
         sodipodi:role="line">0</tspan></text>
    <text
       sodipodi:linespacing="125%"
       id="text6070"
       y="738.79077"
       x="92.857147"
       style="font-style:normal;font-weight:normal;font-size:40px;line-height:125%;font-family:sans-serif;letter-spacing:0px;word-spacing:0px;fill:#000000;fill-opacity:1;stroke:none;stroke-width:1px;stroke-linecap:butt;stroke-linejoin:miter;stroke-opacity:1"
       xml:space="preserve"><tspan
         y="738.79077"
         x="92.857147"
         id="tspan6072"
         sodipodi:role="line">1</tspan></text>
    <text
       sodipodi:linespacing="125%"
       id="text6074"
       y="838.79077"
       x="93.571434"
       style="font-style:normal;font-weight:normal;font-size:40px;line-height:125%;font-family:sans-serif;letter-spacing:0px;word-spacing:0px;fill:#000000;fill-opacity:1;stroke:none;stroke-width:1px;stroke-linecap:butt;stroke-linejoin:miter;stroke-opacity:1"
       xml:space="preserve"><tspan
         y="838.79077"
         x="93.571434"
         id="tspan6076"
         sodipodi:role="line">2</tspan></text>
    <text
       sodipodi:linespacing="125%"
       id="text6092"
       y="835.82593"
       x="325.63995"
       style="font-style:normal;font-weight:normal;font-size:40px;line-height:125%;font-family:sans-serif;letter-spacing:0px;word-spacing:0px;fill:#000000;fill-opacity:1;stroke:none;stroke-width:1px;stroke-linecap:butt;stroke-linejoin:miter;stroke-opacity:1"
       xml:space="preserve"><tspan
         y="835.82593"
         x="325.63995"
         id="tspan6094"
         sodipodi:role="line">(2,2)</tspan></text>
  </g>
</svg>
